{
  "accessors": [
    {
      "bufferView": 2,
      "componentType": 5126,
      "count": 18926,
      "max": [
        0.20522400736808777,
        0.2727009952068329,
        0.4339450001716614
      ],
      "min": [
        -0.20522400736808777,
        -0.2727009952068329,
        0.02349659986793995
      ],
      "type": "VEC3"
    },
    {
      "bufferView": 2,
      "byteOffset": 227112,
      "componentType": 5126,
      "count": 18926,
      "max": [
        1.0,
        1.0,
        1.0
      ],
      "min": [
        -1.0,
        -1.0,
        -1.0
      ],
      "type": "VEC3"
    },
    {
      "bufferView": 3,
      "componentType": 5126,
      "count": 18926,
      "max": [
        1.0,
        1.0,
        1.0,
        1.0
      ],
      "min": [
        -1.0,
        -1.0,
        -1.0,
        -1.0
      ],
      "type": "VEC4"
    },
    {
      "bufferView": 1,
      "componentType": 5126,
      "count": 18926,
      "max": [
        0.9974640011787415,
        0.9929530024528503
      ],
      "min": [
        0.004356000106781721,
        0.003384999930858612
      ],
      "type": "VEC2"
    },
    {
      "bufferView": 0,
      "componentType": 5125,
      "count": 82698,
      "type": "SCALAR"
    },
    {
      "bufferView": 2,
      "byteOffset": 454224,
      "componentType": 5126,
      "count": 65532,
      "max": [
        0.8433459997177124,
        0.06315600126981735,
        0.8661280274391174
      ],
      "min": [
        -1.0,
        -0.24271200597286224,
        -0.8661280274391174
      ],
      "type": "VEC3"
    },
    {
      "bufferView": 2,
      "byteOffset": 1240608,
      "componentType": 5126,
      "count": 65532,
      "max": [
        1.0,
        1.0,
        1.0
      ],
      "min": [
        -1.0,
        -1.0,
        -1.0
      ],
      "type": "VEC3"
    },
    {
      "bufferView": 3,
      "byteOffset": 302816,
      "componentType": 5126,
      "count": 65532,
      "max": [
        1.0,
        1.0,
        1.0,
        1.0
      ],
      "min": [
        -1.0,
        -1.0,
        -1.0,
        -1.0
      ],
      "type": "VEC4"
    },
    {
      "bufferView": 1,
      "byteOffset": 151408,
      "componentType": 5126,
      "count": 65532,
      "max": [
        0.9984130263328552,
        0.9972630143165588
      ],
      "min": [
        0.003432000055909157,
        0.3658060133457184
      ],
      "type": "VEC2"
    },
    {
      "bufferView": 0,
      "byteOffset": 330792,
      "componentType": 5125,
      "count": 268023,
      "type": "SCALAR"
    },
    {
      "bufferView": 2,
      "byteOffset": 2026992,
      "componentType": 5126,
      "count": 20015,
      "max": [
        1.0,
        0.06438460201025009,
        0.8661280274391174
      ],
      "min": [
        -0.12054000049829483,
        -0.2346539944410324,
        0.10113199800252914
      ],
      "type": "VEC3"
    },
    {
      "bufferView": 2,
      "byteOffset": 2267172,
      "componentType": 5126,
      "count": 20015,
      "max": [
        1.0,
        1.0,
        1.0
      ],
      "min": [
        -1.0,
        -1.0,
        -1.0
      ],
      "type": "VEC3"
    },
    {
      "bufferView": 3,
      "byteOffset": 1351328,
      "componentType": 5126,
      "count": 20015,
      "max": [
        1.0,
        1.0,
        1.0,
        1.0
      ],
      "min": [
        -1.0,
        -1.0,
        -1.0,
        -1.0
      ],
      "type": "VEC4"
    },
    {
      "bufferView": 1,
      "byteOffset": 675664,
      "componentType": 5126,
      "count": 20015,
      "max": [
        0.9984130263328552,
        0.9972630143165588
      ],
      "min": [
        0.003432000055909157,
        0.0032130000181496143
      ],
      "type": "VEC2"
    },
    {
      "bufferView": 0,
      "byteOffset": 1402884,
      "componentType": 5125,
      "count": 82284,
      "type": "SCALAR"
    }
  ],
  "asset": {
    "extras": {
      "author": "Phobos (https://sketchfab.com/1majaxed)",
      "license": "CC-BY-4.0 (http://creativecommons.org/licenses/by/4.0/)",
      "source": "https://sketchfab.com/3d-models/satellite-f8bd72434281441db77e85ce830f89c1",
      "title": "Satellite"
    },
    "generator": "Sketchfab-12.67.0",
    "version": "2.0"
  },
  "bufferViews": [
    {
      "buffer": 0,
      "byteLength": 1732020,
      "name": "floatBufferViews",
      "target": 34963
    },
    {
      "buffer": 0,
      "byteLength": 835784,
      "byteOffset": 1732020,
      "byteStride": 8,
      "name": "floatBufferViews",
      "target": 34962
    },
    {
      "buffer": 0,
      "byteLength": 2507352,
      "byteOffset": 2567804,
      "byteStride": 12,
      "name": "floatBufferViews",
      "target": 34962
    },
    {
      "buffer": 0,
      "byteLength": 1671568,
      "byteOffset": 5075156,
      "byteStride": 16,
      "name": "floatBufferViews",
      "target": 34962
    }
  ],
  "buffers": [
    {
      "byteLength": 6746724,
      "uri": "scene.bin"
    }
  ],
  "images": [
    {
      "uri": "textures/phong1SG_baseColor.jpeg"
    },
    {
      "uri": "textures/phong1SG_metallicRoughness.png"
    },
    {
      "uri": "textures/phong1SG_normal.png"
    },
    {
      "uri": "textures/phong2SG_baseColor.jpeg"
    },
    {
      "uri": "textures/phong2SG_metallicRoughness.png"
    },
    {
      "uri": "textures/phong2SG_normal.png"
    }
  ],
  "materials": [
    {
      "doubleSided": true,
      "name": "phong1SG",
      "normalTexture": {
        "index": 2
      },
      "occlusionTexture": {
        "index": 1
      },
      "pbrMetallicRoughness": {
        "baseColorTexture": {
          "index": 0
        },
        "metallicRoughnessTexture": {
          "index": 1
        }
      }
    },
    {
      "doubleSided": true,
      "name": "phong2SG",
      "normalTexture": {
        "index": 5
      },
      "occlusionTexture": {
        "index": 4
      },
      "pbrMetallicRoughness": {
        "baseColorTexture": {
          "index": 3
        },
        "metallicRoughnessTexture": {
          "index": 4
        }
      }
    }
  ],
  "meshes": [
    {
      "name": "defaultMaterial",
      "primitives": [
        {
          "attributes": {
            "NORMAL": 1,
            "POSITION": 0,
            "TANGENT": 2,
            "TEXCOORD_0": 3
          },
          "indices": 4,
          "material": 1,
          "mode": 4
        }
      ]
    },
    {
      "name": "defaultMaterial",
      "primitives": [
        {
          "attributes": {
            "NORMAL": 6,
            "POSITION": 5,
            "TANGENT": 7,
            "TEXCOORD_0": 8
          },
          "indices": 9,
          "material": 0,
          "mode": 4
        }
      ]
    },
    {
      "name": "defaultMaterial",
      "primitives": [
        {
          "attributes": {
            "NORMAL": 11,
            "POSITION": 10,
            "TANGENT": 12,
            "TEXCOORD_0": 13
          },
          "indices": 14,
          "material": 0,
          "mode": 4
        }
      ]
    }
  ],
  "nodes": [
    {
      "children": [
        1
      ],
      "matrix": [
        0.824741542339325,
        0.18241052329540264,
        -0.5352829694747925,
        0.0,
        -0.51451575756073,
        -0.15076836943626384,
        -0.8441222906112671,
        0.0,
        -0.23468051850795746,
        0.9715942144393921,
        -0.030491838231682562,
        0.0,
        -1.0280000140028278e-07,
        2.88699993689079e-07,
        -7.744999948045005e-07,
        1.0
      ],
      "name": "Sketchfab_model"
    },
    {
      "children": [
        2,
        4
      ],
      "matrix": [
        1.0,
        0.0,
        0.0,
        0.0,
        0.0,
        -4.371139006309477e-08,
        0.999999999999999,
        0.0,
        0.0,
        -0.999999999999999,
        -4.371139006309477e-08,
        0.0,
        0.0,
        0.0,
        0.0,
        1.0
      ],
      "name": "Collada visual scene group"
    },
    {
      "children": [
        3
      ],
      "name": "g"
    },
    {
      "mesh": 0,
      "name": "defaultMaterial"
    },
    {
      "children": [
        5,
        6
      ],
      "name": "g"
    },
    {
      "mesh": 1,
      "name": "defaultMaterial"
    },
    {
      "mesh": 2,
      "name": "defaultMaterial"
    }
  ],
  "samplers": [
    {
      "magFilter": 9729,
      "minFilter": 9987,
      "wrapS": 10497,
      "wrapT": 10497
    }
  ],
  "scene": 0,
  "scenes": [
    {
      "name": "Sketchfab_Scene",
      "nodes": [
        0
      ]
    }
  ],
  "textures": [
    {
      "sampler": 0,
      "source": 0
    },
    {
      "sampler": 0,
      "source": 1
    },
    {
      "sampler": 0,
      "source": 2
    },
    {
      "sampler": 0,
      "source": 3
    },
    {
      "sampler": 0,
      "source": 4
    },
    {
      "sampler": 0,
      "source": 5
    }
  ]
}
